# Blender v2.92.0 OBJ File: ''
# www.blender.org
mtllib untitled.mtl
o Grid
v 1.000000 1.000000 0.000000
v 0.777778 1.000000 0.000000
v 0.555556 1.000000 0.000000
v 0.333333 1.000000 0.000000
v 0.111111 1.000000 0.000000
v -0.111111 1.000000 0.000000
v -0.333333 1.000000 0.000000
v -0.555556 1.000000 0.000000
v -0.777778 1.000000 0.000000
v -1.000000 1.000000 0.000000
v 1.000000 0.777778 0.000000
v 0.777778 0.777778 0.026409
v 0.566750 0.800683 0.166881
v 0.332143 0.803521 0.180514
v 0.111111 0.777778 0.086718
v -0.111111 0.777778 0.078758
v -0.333684 0.779877 0.062412
v -0.555556 0.777778 0.049233
v -0.777778 0.777778 0.050569
v -1.000000 0.777778 0.000000
v 1.000000 0.555556 0.000000
v 0.777778 0.555556 0.038583
v 0.578720 0.563074 0.230499
v 0.329865 0.558035 0.218562
v 0.112052 0.553592 0.128732
v -0.111049 0.555413 0.108901
v -0.333718 0.555856 0.103308
v -0.555816 0.555622 0.087937
v -0.777778 0.555556 0.055930
v -1.000000 0.555556 0.009274
v 1.000000 0.333333 0.000000
v 0.779815 0.332501 0.057614
v 0.563156 0.332982 0.168300
v 0.328918 0.330323 0.119278
v 0.111511 0.327249 0.112582
v -0.108778 0.328495 0.109901
v -0.333691 0.331373 0.099018
v -0.555556 0.333333 0.061470
v -0.777778 0.333333 0.055055
v -1.000000 0.333333 0.000000
v 1.000000 0.111111 0.000000
v 0.781044 0.109897 0.030727
v 0.560509 0.105189 0.150970
v 0.330481 0.109863 0.097318
v 0.111111 0.111111 0.026280
v -0.111111 0.111111 0.014331
v -0.333197 0.110032 0.055168
v -0.555556 0.111111 0.049229
v -0.777778 0.111111 0.067554
v -1.000000 0.111111 0.000000
v 1.000000 -0.111111 0.000000
v 0.777778 -0.111111 0.010941
v 0.558244 -0.114689 0.079270
v 0.333333 -0.111111 0.020016
v 0.110435 -0.111876 0.035634
v -0.111111 -0.111111 0.000000
v -0.333333 -0.111111 0.000000
v -0.555556 -0.111111 0.022997
v -0.777778 -0.111111 0.076545
v -1.000000 -0.111111 0.000000
v 1.000000 -0.333333 0.000000
v 0.777778 -0.333333 0.000000
v 0.555766 -0.333586 0.015655
v 0.333333 -0.333333 0.020261
v 0.111111 -0.333333 0.000000
v -0.111111 -0.333333 0.000000
v -0.333333 -0.333333 0.000000
v -0.555556 -0.333333 0.020043
v -0.777778 -0.333333 0.072927
v -1.000000 -0.333333 0.000000
v 1.000000 -0.555556 0.000000
v 0.777778 -0.555556 0.000000
v 0.555556 -0.555556 0.012851
v 0.333333 -0.555556 0.009156
v 0.111111 -0.555556 0.000000
v -0.111111 -0.555556 0.000000
v -0.333333 -0.555556 0.000000
v -0.555556 -0.555556 0.020956
v -0.777778 -0.555556 0.059997
v -1.000000 -0.555556 0.000000
v 1.000000 -0.777778 0.000000
v 0.777778 -0.777778 0.000000
v 0.557201 -0.778395 0.092847
v 0.331266 -0.777413 0.080373
v 0.110296 -0.777716 0.038991
v -0.111111 -0.777778 0.042988
v -0.333321 -0.777782 0.042283
v -0.555556 -0.777778 0.054187
v -0.777778 -0.777778 0.000000
v -1.000000 -0.777778 0.000000
v 1.000000 -1.000000 0.000000
v 0.777778 -1.000000 0.000000
v 0.555556 -1.000000 0.000000
v 0.333333 -1.000000 0.000000
v 0.111111 -1.000000 0.000000
v -0.111111 -1.000000 0.000000
v -0.333333 -1.000000 0.000000
v -0.555556 -1.000000 0.000000
v -0.777778 -1.000000 0.000000
v -1.000000 -1.000000 0.000000
vt 0.111111 0.000000
vt 0.000000 0.111111
vt 0.000000 0.000000
vt 0.222222 0.000000
vt 0.111111 0.111111
vt 0.333333 0.111111
vt 0.222222 0.111111
vt 0.333333 0.000000
vt 0.444444 0.111111
vt 0.444444 0.000000
vt 0.555556 0.111111
vt 0.555556 0.000000
vt 0.666667 0.111111
vt 0.666667 0.000000
vt 0.777778 0.111111
vt 0.888889 0.000000
vt 0.777778 0.000000
vt 1.000000 0.111111
vt 0.888889 0.111111
vt 0.000000 0.222222
vt 0.111111 0.222222
vt 0.333333 0.222222
vt 0.222222 0.222222
vt 0.444444 0.222222
vt 0.555556 0.222222
vt 0.666667 0.222222
vt 0.777778 0.222222
vt 0.888889 0.222222
vt 1.000000 0.222222
vt 0.000000 0.333333
vt 0.222222 0.333333
vt 0.111111 0.333333
vt 0.333333 0.333333
vt 0.555556 0.333333
vt 0.444444 0.333333
vt 0.666667 0.333333
vt 0.777778 0.333333
vt 0.888889 0.333333
vt 0.111111 0.444444
vt 0.000000 0.444444
vt 0.222222 0.444444
vt 0.333333 0.444444
vt 0.444444 0.444444
vt 0.666667 0.444444
vt 0.555556 0.444444
vt 0.777778 0.444444
vt 1.000000 0.444444
vt 0.888889 0.444444
vt 0.000000 0.555556
vt 0.222222 0.555556
vt 0.111111 0.555556
vt 0.333333 0.555556
vt 0.444444 0.555556
vt 0.666667 0.555556
vt 0.555556 0.555556
vt 0.777778 0.555556
vt 0.888889 0.555556
vt 1.000000 0.555556
vt 0.111111 0.666667
vt 0.000000 0.666667
vt 0.222222 0.666667
vt 0.333333 0.666667
vt 0.444444 0.666667
vt 0.555556 0.666667
vt 0.777778 0.666667
vt 0.666667 0.666667
vt 0.888889 0.666667
vt 0.000000 0.777778
vt 0.111111 0.777778
vt 0.333333 0.777778
vt 0.222222 0.777778
vt 0.444444 0.777778
vt 0.555556 0.777778
vt 0.666667 0.777778
vt 0.888889 0.777778
vt 0.777778 0.777778
vt 1.000000 0.666667
vt 0.000000 0.888889
vt 0.111111 0.888889
vt 0.333333 0.888889
vt 0.222222 0.888889
vt 0.444444 0.888889
vt 0.666667 0.888889
vt 0.555556 0.888889
vt 0.777778 0.888889
vt 1.000000 0.777778
vt 0.888889 0.888889
vt 0.000000 1.000000
vt 0.222222 1.000000
vt 0.111111 1.000000
vt 0.333333 1.000000
vt 0.555556 1.000000
vt 0.444444 1.000000
vt 0.777778 1.000000
vt 0.666667 1.000000
vt 1.000000 0.888889
vt 0.888889 1.000000
vt 1.000000 0.000000
vt 1.000000 0.333333
vt 1.000000 1.000000
vn 0.0000 0.0000 1.0000
vn 0.0000 0.1180 0.9930
vn 0.0522 0.6428 0.7642
vn -0.3641 0.6313 0.6847
vn -0.0333 0.3633 0.9311
vn -0.0659 0.3333 0.9405
vn -0.0596 0.2724 0.9603
vn 0.0000 0.2163 0.9763
vn -0.2166 0.2166 0.9519
vn 0.1180 0.0000 0.9930
vn 0.5570 0.0454 0.8293
vn -0.0515 0.2559 0.9653
vn -0.3798 0.1451 0.9136
vn -0.0856 0.1832 0.9793
vn -0.0246 0.1343 0.9906
vn -0.0681 0.1792 0.9815
vn -0.1407 0.1701 0.9753
vn -0.2054 0.0236 0.9784
vn 0.1711 0.0000 0.9853
vn 0.4536 0.0799 0.8876
vn -0.0411 -0.2581 0.9652
vn -0.3471 -0.3736 0.8602
vn -0.0125 -0.0711 0.9974
vn -0.0483 0.0039 0.9988
vn -0.0690 -0.0191 0.9974
vn -0.1417 -0.1172 0.9829
vn -0.2055 -0.0039 0.9787
vn 0.1390 0.0000 0.9903
vn 0.4779 -0.1027 0.8724
vn -0.2035 -0.0719 0.9764
vn -0.0292 -0.0993 0.9946
vn -0.0134 -0.3708 0.9286
vn 0.1678 -0.3983 0.9018
vn -0.1654 -0.1920 0.9674
vn -0.0288 -0.0550 0.9981
vn -0.2904 0.0537 0.9554
vn 0.2973 -0.0895 0.9506
vn -0.2224 -0.3002 0.9276
vn -0.2936 -0.3190 0.9011
vn -0.0536 0.0420 0.9977
vn 0.0000 -0.0644 0.9979
vn 0.0999 -0.2409 0.9654
vn 0.2327 -0.1140 0.9658
vn -0.3254 0.0382 0.9448
vn 0.0703 -0.0491 0.9963
vn -0.2494 -0.2676 0.9307
vn 0.0699 0.0011 0.9976
vn -0.1574 -0.1574 0.9749
vn 0.0898 0.0000 0.9960
vn 0.2315 -0.0129 0.9728
vn -0.3256 -0.0154 0.9454
vn 0.0703 0.0000 0.9975
vn -0.0166 -0.0126 0.9998
vn -0.0907 -0.0497 0.9946
vn 0.1730 0.0040 0.9849
vn -0.3113 -0.0552 0.9487
vn 0.0577 0.0000 0.9983
vn -0.0504 0.3371 0.9401
vn -0.1759 0.3024 0.9368
vn 0.0000 0.1729 0.9849
vn -0.0031 0.1899 0.9818
vn 0.0922 0.1861 0.9782
vn 0.1712 0.1457 0.9744
vn -0.2522 -0.2522 0.9342
vn -0.0525 -0.3856 0.9212
vn -0.1729 -0.3359 0.9259
vn 0.0000 -0.1728 0.9850
vn -0.0031 -0.1899 0.9818
vn 0.0000 -0.1869 0.9824
vn -0.2305 -0.2305 0.9454
vn 0.1172 0.1172 0.9862
vn 0.4961 0.5736 0.6518
vn 0.0000 0.6766 0.7364
vn 0.0000 0.3635 0.9316
vn 0.0000 0.3341 0.9426
vn 0.0000 0.2728 0.9621
vn 0.0059 0.2219 0.9751
vn 0.1708 0.0539 0.9838
vn 0.6812 0.2212 0.6979
vn 0.0592 0.1524 0.9866
vn -0.4016 0.1671 0.9005
vn -0.0355 0.1342 0.9903
vn -0.0704 0.1792 0.9813
vn -0.0600 0.1714 0.9834
vn 0.0060 0.0241 0.9997
vn -0.2217 0.0407 0.9743
vn 0.2519 0.0846 0.9640
vn 0.6699 -0.2356 0.7041
vn -0.1842 -0.3922 0.9013
vn -0.0297 -0.0711 0.9970
vn -0.0885 0.0035 0.9961
vn -0.0251 -0.0191 0.9995
vn -0.1667 -0.1168 0.9791
vn -0.0289 -0.0039 0.9996
vn -0.2403 -0.0405 0.9699
vn 0.2519 -0.1147 0.9609
vn 0.4536 -0.0728 0.8882
vn -0.2279 -0.0981 0.9687
vn -0.2899 -0.3544 0.8890
vn -0.0492 -0.4015 0.9145
vn -0.0499 -0.1942 0.9797
vn -0.0269 -0.0550 0.9981
vn 0.0821 0.0560 0.9951
vn -0.2405 0.0000 0.9707
vn 0.0490 -0.0898 0.9948
vn 0.4643 -0.2789 0.8406
vn -0.2459 -0.3229 0.9139
vn 0.0697 0.0416 0.9967
vn -0.1587 -0.0635 0.9853
vn 0.1768 -0.2383 0.9550
vn -0.0271 -0.1172 0.9927
vn 0.0821 0.0403 0.9958
vn -0.2908 0.0000 0.9568
vn 0.0491 -0.0491 0.9976
vn 0.2901 -0.2701 0.9181
vn 0.0207 0.0011 0.9998
vn -0.0897 -0.1585 0.9833
vn 0.1029 -0.0132 0.9946
vn 0.2342 -0.0158 0.9721
vn -0.3118 0.0000 0.9501
vn 0.0577 -0.0127 0.9983
vn 0.0206 -0.0499 0.9985
vn -0.0412 0.0000 0.9992
vn 0.0939 0.0041 0.9956
vn 0.2311 -0.0565 0.9713
vn -0.2607 0.0000 0.9654
vn 0.3672 0.3167 0.8746
vn -0.0158 0.3057 0.9520
vn -0.0405 0.1729 0.9841
vn 0.0177 0.1899 0.9816
vn 0.0000 0.1869 0.9824
vn 0.0529 0.1477 0.9876
vn -0.2291 -0.2537 0.9397
vn 0.3624 -0.3624 0.8586
vn 0.0000 -0.3396 0.9406
vn 0.0178 -0.1899 0.9816
vn 0.0520 -0.2366 0.9702
usemtl None
s off
f 2/1/1 11/2/1 1/3/1
f 3/4/2 12/5/2 2/1/2
f 3/4/3 14/6/3 13/7/3
f 4/8/4 15/9/4 14/6/4
f 5/10/5 16/11/5 15/9/5
f 6/12/6 17/13/6 16/11/6
f 7/14/7 18/15/7 17/13/7
f 9/16/8 18/15/8 8/17/8
f 9/16/9 20/18/9 19/19/9
f 12/5/10 21/20/10 11/2/10
f 13/7/11 22/21/11 12/5/11
f 13/7/12 24/22/12 23/23/12
f 14/6/13 25/24/13 24/22/13
f 15/9/14 26/25/14 25/24/14
f 16/11/15 27/26/15 26/25/15
f 17/13/16 28/27/16 27/26/16
f 18/15/17 29/28/17 28/27/17
f 19/19/18 30/29/18 29/28/18
f 22/21/19 31/30/19 21/20/19
f 22/21/20 33/31/20 32/32/20
f 24/22/21 33/31/21 23/23/21
f 25/24/22 34/33/22 24/22/22
f 25/24/23 36/34/23 35/35/23
f 26/25/24 37/36/24 36/34/24
f 28/27/25 37/36/25 27/26/25
f 29/28/26 38/37/26 28/27/26
f 30/29/27 39/38/27 29/28/27
f 31/30/28 42/39/28 41/40/28
f 32/32/29 43/41/29 42/39/29
f 34/33/30 43/41/30 33/31/30
f 35/35/31 44/42/31 34/33/31
f 36/34/32 45/43/32 35/35/32
f 36/34/33 47/44/33 46/45/33
f 38/37/34 47/44/34 37/36/34
f 39/38/35 48/46/35 38/37/35
f 39/38/36 50/47/36 49/48/36
f 42/39/28 51/49/28 41/40/28
f 42/39/37 53/50/37 52/51/37
f 44/42/38 53/50/38 43/41/38
f 45/43/39 54/52/39 44/42/39
f 46/45/40 55/53/40 45/43/40
f 46/45/41 57/54/41 56/55/41
f 47/44/42 58/56/42 57/54/42
f 48/46/43 59/57/43 58/56/43
f 49/48/44 60/58/44 59/57/44
f 51/49/1 62/59/1 61/60/1
f 52/51/45 63/61/45 62/59/45
f 54/52/46 63/61/46 53/50/46
f 55/53/47 64/62/47 54/52/47
f 56/55/48 65/63/48 55/53/48
f 57/54/1 66/64/1 56/55/1
f 57/54/49 68/65/49 67/66/49
f 58/56/50 69/67/50 68/65/50
f 60/58/51 69/67/51 59/57/51
f 62/59/1 71/68/1 61/60/1
f 63/61/52 72/69/52 62/59/52
f 63/61/53 74/70/53 73/71/53
f 65/63/54 74/70/54 64/62/54
f 66/64/1 75/72/1 65/63/1
f 67/66/1 76/73/1 66/64/1
f 68/65/49 77/74/49 67/66/49
f 68/65/55 79/75/55 78/76/55
f 70/77/56 79/75/56 69/67/56
f 72/69/1 81/78/1 71/68/1
f 73/71/57 82/79/57 72/69/57
f 73/71/58 84/80/58 83/81/58
f 74/70/59 85/82/59 84/80/59
f 76/73/60 85/82/60 75/72/60
f 76/73/61 87/83/61 86/84/61
f 78/76/62 87/83/62 77/74/62
f 79/75/63 88/85/63 78/76/63
f 80/86/64 89/87/64 79/75/64
f 82/79/1 91/88/1 81/78/1
f 82/79/1 93/89/1 92/90/1
f 84/80/65 93/89/65 83/81/65
f 85/82/66 94/91/66 84/80/66
f 85/82/67 96/92/67 95/93/67
f 87/83/68 96/92/68 86/84/68
f 87/83/69 98/94/69 97/95/69
f 89/87/70 98/94/70 88/85/70
f 90/96/1 99/97/1 89/87/1
f 2/1/71 12/5/71 11/2/71
f 3/4/72 13/7/72 12/5/72
f 3/4/73 4/8/73 14/6/73
f 4/8/74 5/10/74 15/9/74
f 5/10/75 6/12/75 16/11/75
f 6/12/76 7/14/76 17/13/76
f 7/14/8 8/17/8 18/15/8
f 9/16/77 19/19/77 18/15/77
f 9/16/1 10/98/1 20/18/1
f 12/5/78 22/21/78 21/20/78
f 13/7/79 23/23/79 22/21/79
f 13/7/80 14/6/80 24/22/80
f 14/6/81 15/9/81 25/24/81
f 15/9/82 16/11/82 26/25/82
f 16/11/83 17/13/83 27/26/83
f 17/13/84 18/15/84 28/27/84
f 18/15/85 19/19/85 29/28/85
f 19/19/86 20/18/86 30/29/86
f 22/21/87 32/32/87 31/30/87
f 22/21/88 23/23/88 33/31/88
f 24/22/89 34/33/89 33/31/89
f 25/24/90 35/35/90 34/33/90
f 25/24/91 26/25/91 36/34/91
f 26/25/92 27/26/92 37/36/92
f 28/27/93 38/37/93 37/36/93
f 29/28/94 39/38/94 38/37/94
f 30/29/95 40/99/95 39/38/95
f 31/30/96 32/32/96 42/39/96
f 32/32/97 33/31/97 43/41/97
f 34/33/98 44/42/98 43/41/98
f 35/35/99 45/43/99 44/42/99
f 36/34/100 46/45/100 45/43/100
f 36/34/101 37/36/101 47/44/101
f 38/37/102 48/46/102 47/44/102
f 39/38/103 49/48/103 48/46/103
f 39/38/104 40/99/104 50/47/104
f 42/39/105 52/51/105 51/49/105
f 42/39/106 43/41/106 53/50/106
f 44/42/107 54/52/107 53/50/107
f 45/43/108 55/53/108 54/52/108
f 46/45/109 56/55/109 55/53/109
f 46/45/110 47/44/110 57/54/110
f 47/44/111 48/46/111 58/56/111
f 48/46/112 49/48/112 59/57/112
f 49/48/113 50/47/113 60/58/113
f 51/49/114 52/51/114 62/59/114
f 52/51/115 53/50/115 63/61/115
f 54/52/116 64/62/116 63/61/116
f 55/53/117 65/63/117 64/62/117
f 56/55/1 66/64/1 65/63/1
f 57/54/1 67/66/1 66/64/1
f 57/54/118 58/56/118 68/65/118
f 58/56/119 59/57/119 69/67/119
f 60/58/120 70/77/120 69/67/120
f 62/59/1 72/69/1 71/68/1
f 63/61/121 73/71/121 72/69/121
f 63/61/122 64/62/122 74/70/122
f 65/63/123 75/72/123 74/70/123
f 66/64/1 76/73/1 75/72/1
f 67/66/1 77/74/1 76/73/1
f 68/65/124 78/76/124 77/74/124
f 68/65/125 69/67/125 79/75/125
f 70/77/126 80/86/126 79/75/126
f 72/69/1 82/79/1 81/78/1
f 73/71/127 83/81/127 82/79/127
f 73/71/128 74/70/128 84/80/128
f 74/70/129 75/72/129 85/82/129
f 76/73/130 86/84/130 85/82/130
f 76/73/131 77/74/131 87/83/131
f 78/76/132 88/85/132 87/83/132
f 79/75/133 89/87/133 88/85/133
f 80/86/1 90/96/1 89/87/1
f 82/79/1 92/90/1 91/88/1
f 82/79/134 83/81/134 93/89/134
f 84/80/135 94/91/135 93/89/135
f 85/82/67 95/93/67 94/91/67
f 85/82/136 86/84/136 96/92/136
f 87/83/69 97/95/69 96/92/69
f 87/83/137 88/85/137 98/94/137
f 89/87/1 99/97/1 98/94/1
f 90/96/1 100/100/1 99/97/1
